<svg width="1280" height="465" viewBox="0 0 1280 465" fill="none" xmlns="http://www.w3.org/2000/svg">
<path d="M1388 465H0V0H1388V465ZM44 456.041H69V420.203H44V456.041ZM129 456.041H154V420.203H129V456.041ZM214 456.041H239V420.203H214V456.041ZM299 456.041H324V420.203H299V456.041ZM384 456.041H409V420.203H384V456.041ZM469 456.041H494V420.203H469V456.041ZM554 456.041H579V420.203H554V456.041ZM639 456.041H664V420.203H639V456.041ZM724 456.041H749V420.203H724V456.041ZM809 456.041H834V420.203H809V456.041ZM894 456.041H919V420.203H894V456.041ZM979 456.041H1004V420.203H979V456.041ZM1064 456.041H1089V420.203H1064V456.041ZM1149 456.041H1174V420.203H1149V456.041ZM1234 456.041H1259V420.203H1234V456.041ZM1319 456.041H1344V420.203H1319V456.041ZM44 44.7969H69V8.95898H44V44.7969ZM129 44.7969H154V8.95898H129V44.7969ZM214 44.7969H239V8.95898H214V44.7969ZM299 44.7969H324V8.95898H299V44.7969ZM384 44.7969H409V8.95898H384V44.7969ZM469 44.7969H494V8.95898H469V44.7969ZM554 44.7969H579V8.95898H554V44.7969ZM639 44.7969H664V8.95898H639V44.7969ZM724 44.7969H749V8.95898H724V44.7969ZM809 44.7969H834V8.95898H809V44.7969ZM894 44.7969H919V8.95898H894V44.7969ZM979 44.7969H1004V8.95898H979V44.7969ZM1064 44.7969H1089V8.95898H1064V44.7969ZM1149 44.7969H1174V8.95898H1149V44.7969ZM1234 44.7969H1259V8.95898H1234V44.7969ZM1319 8.95898V44.7969H1344V8.95898H1319Z" fill="#474830"/>
</svg>
