<svg width="121" height="25" viewBox="0 0 121 25" fill="none" xmlns="http://www.w3.org/2000/svg">
<line y1="12" x2="36" y2="12" stroke="#969870"/>
<circle cx="60.5" cy="12.5" r="12" fill="#313221" stroke="#969870"/>
<path d="M54.4238 12.8232C54.4238 12.012 54.4648 11.2829 54.5469 10.6357C54.6289 9.98405 54.8089 9.40527 55.0869 8.89941C55.3695 8.389 55.7204 8.00846 56.1396 7.75781C56.5635 7.5026 57.0443 7.375 57.582 7.375C58.1927 7.375 58.7282 7.53223 59.1885 7.84668C59.6533 8.16113 59.986 8.64421 60.1865 9.2959C60.3916 9.94759 60.4941 10.834 60.4941 11.9551C60.4941 13.778 60.2139 15.1201 59.6533 15.9814C59.0973 16.8428 58.3249 17.2734 57.3359 17.2734C56.8392 17.2734 56.3994 17.1663 56.0166 16.9521C55.6383 16.738 55.3262 16.4281 55.0801 16.0225C54.8385 15.6169 54.6676 15.1383 54.5674 14.5869C54.4717 14.0355 54.4238 13.4476 54.4238 12.8232ZM55.5996 12.4268C55.5996 13.2926 55.6634 14.0811 55.791 14.792C55.9232 15.5029 56.1396 16.0156 56.4404 16.3301C56.7458 16.64 57.1081 16.7949 57.5273 16.7949C57.9329 16.7949 58.2702 16.6559 58.5391 16.3779C58.8125 16.0999 59.0107 15.6237 59.1338 14.9492C59.2614 14.2747 59.3252 13.4408 59.3252 12.4473C59.3252 10.8887 59.1771 9.73568 58.8809 8.98828C58.5846 8.24089 58.0947 7.86719 57.4111 7.86719C56.8141 7.86719 56.363 8.15658 56.0576 8.73535C55.7523 9.31413 55.5996 10.5446 55.5996 12.4268ZM61.3145 17.0684L61.2324 17V16.6855L63.5225 14.2588C64.4658 13.2607 65.0765 12.4883 65.3545 11.9414C65.6325 11.3945 65.7715 10.8841 65.7715 10.4102C65.7715 9.85417 65.6029 9.3916 65.2656 9.02246C64.9284 8.65332 64.4727 8.46875 63.8984 8.46875C63.5293 8.46875 63.208 8.52572 62.9346 8.63965C62.6611 8.75358 62.4766 8.88118 62.3809 9.02246C62.2897 9.16374 62.1553 9.56022 61.9775 10.2119L61.916 10.2666H61.6357L61.5674 10.2051C61.6722 9.58984 61.7451 8.98145 61.7861 8.37988C62.2145 7.96061 62.6133 7.69401 62.9824 7.58008C63.3561 7.46159 63.7458 7.40234 64.1514 7.40234C64.6344 7.40234 65.097 7.49349 65.5391 7.67578C65.9811 7.85807 66.3366 8.1543 66.6055 8.56445C66.8743 8.97005 67.0088 9.44173 67.0088 9.97949C67.0088 10.3805 66.929 10.7839 66.7695 11.1895C66.6146 11.5905 66.3844 11.9801 66.0791 12.3584C65.7783 12.7321 65.3659 13.181 64.8418 13.7051L62.709 15.8789H65.4092C66.2386 15.8789 66.929 15.8493 67.4805 15.79L67.5283 15.8447C67.501 15.9997 67.4873 16.2025 67.4873 16.4531C67.4873 16.681 67.501 16.861 67.5283 16.9932L67.4805 17.0684C67.1523 17.0501 66.6488 17.0342 65.9697 17.0205C65.2907 17.0068 64.8418 17 64.623 17C64.181 17 63.5863 17.0046 62.8389 17.0137C62.0915 17.0273 61.5833 17.0456 61.3145 17.0684Z" fill="#969870"/>
<line x1="85" y1="12" x2="121" y2="12" stroke="#969870"/>
</svg>
