<svg width="121" height="25" viewBox="0 0 121 25" fill="none" xmlns="http://www.w3.org/2000/svg">
<line y1="12" x2="36" y2="12" stroke="#969870"/>
<circle cx="60.5" cy="12.5" r="12" fill="#313221" stroke="#969870"/>
<path d="M54.4238 12.8232C54.4238 12.012 54.4648 11.2829 54.5469 10.6357C54.6289 9.98405 54.8089 9.40527 55.0869 8.89941C55.3695 8.389 55.7204 8.00846 56.1396 7.75781C56.5635 7.5026 57.0443 7.375 57.582 7.375C58.1927 7.375 58.7282 7.53223 59.1885 7.84668C59.6533 8.16113 59.986 8.64421 60.1865 9.2959C60.3916 9.94759 60.4941 10.834 60.4941 11.9551C60.4941 13.778 60.2139 15.1201 59.6533 15.9814C59.0973 16.8428 58.3249 17.2734 57.3359 17.2734C56.8392 17.2734 56.3994 17.1663 56.0166 16.9521C55.6383 16.738 55.3262 16.4281 55.0801 16.0225C54.8385 15.6169 54.6676 15.1383 54.5674 14.5869C54.4717 14.0355 54.4238 13.4476 54.4238 12.8232ZM55.5996 12.4268C55.5996 13.2926 55.6634 14.0811 55.791 14.792C55.9232 15.5029 56.1396 16.0156 56.4404 16.3301C56.7458 16.64 57.1081 16.7949 57.5273 16.7949C57.9329 16.7949 58.2702 16.6559 58.5391 16.3779C58.8125 16.0999 59.0107 15.6237 59.1338 14.9492C59.2614 14.2747 59.3252 13.4408 59.3252 12.4473C59.3252 10.8887 59.1771 9.73568 58.8809 8.98828C58.5846 8.24089 58.0947 7.86719 57.4111 7.86719C56.8141 7.86719 56.363 8.15658 56.0576 8.73535C55.7523 9.31413 55.5996 10.5446 55.5996 12.4268ZM61.8955 16.9043C61.7861 16.5488 61.5605 15.9609 61.2188 15.1406L61.2324 15.0518L61.4717 14.915L61.5537 14.9355C61.932 15.6237 62.1667 16.0156 62.2578 16.1113C62.3535 16.2025 62.5677 16.3118 62.9004 16.4395C63.2331 16.5625 63.584 16.624 63.9531 16.624C64.4134 16.624 64.8213 16.5238 65.1768 16.3232C65.5322 16.1227 65.7965 15.8265 65.9697 15.4346C66.1429 15.0426 66.2295 14.5983 66.2295 14.1016C66.2295 13.6139 66.1429 13.1947 65.9697 12.8438C65.8011 12.4883 65.5413 12.2194 65.1904 12.0371C64.8395 11.8548 64.4613 11.7637 64.0557 11.7637C63.8005 11.7637 63.568 11.7979 63.3584 11.8662C63.1533 11.9346 62.9801 12.0234 62.8389 12.1328C62.7021 12.2376 62.5381 12.3949 62.3467 12.6045L62.0664 12.5225L62.1416 11.0527C62.1598 10.7747 62.1689 10.4945 62.1689 10.2119V8.99512C62.1689 8.63053 62.1576 8.2819 62.1348 7.94922C62.1211 7.74414 62.1143 7.61426 62.1143 7.55957L62.2031 7.49121C62.9004 7.5459 63.6956 7.57324 64.5889 7.57324C65.2679 7.57324 66.0814 7.5459 67.0293 7.49121L67.0566 7.55957C67.0247 7.78288 67.0088 7.99023 67.0088 8.18164C67.0088 8.27734 67.0156 8.43685 67.0293 8.66016L66.9609 8.70117C66.4414 8.66471 65.7441 8.64648 64.8691 8.64648C63.6797 8.64648 62.9893 8.65104 62.7979 8.66016C62.7295 9.19792 62.6816 10.1458 62.6543 11.5039C63.028 11.2305 63.3652 11.0459 63.666 10.9502C63.9668 10.8499 64.2926 10.7998 64.6436 10.7998C65.1403 10.7998 65.6165 10.9137 66.0723 11.1416C66.528 11.3695 66.8675 11.6999 67.0908 12.1328C67.3187 12.5658 67.4326 13.0329 67.4326 13.5342C67.4326 14.4593 67.0498 15.3115 66.2842 16.0908C65.5231 16.8656 64.5479 17.2529 63.3584 17.2529C63.0394 17.2529 62.7751 17.2256 62.5654 17.1709C62.3604 17.1162 62.137 17.0273 61.8955 16.9043Z" fill="#969870"/>
<line x1="85" y1="12" x2="121" y2="12" stroke="#969870"/>
</svg>
