<svg width="121" height="25" viewBox="0 0 121 25" fill="none" xmlns="http://www.w3.org/2000/svg">
<line y1="12" x2="36" y2="12" stroke="#969870"/>
<circle cx="60.5" cy="12.5" r="12" fill="#313221" stroke="#969870"/>
<path d="M54.4238 12.8232C54.4238 12.012 54.4648 11.2829 54.5469 10.6357C54.6289 9.98405 54.8089 9.40527 55.0869 8.89941C55.3695 8.389 55.7204 8.00846 56.1396 7.75781C56.5635 7.5026 57.0443 7.375 57.582 7.375C58.1927 7.375 58.7282 7.53223 59.1885 7.84668C59.6533 8.16113 59.986 8.64421 60.1865 9.2959C60.3916 9.94759 60.4941 10.834 60.4941 11.9551C60.4941 13.778 60.2139 15.1201 59.6533 15.9814C59.0973 16.8428 58.3249 17.2734 57.3359 17.2734C56.8392 17.2734 56.3994 17.1663 56.0166 16.9521C55.6383 16.738 55.3262 16.4281 55.0801 16.0225C54.8385 15.6169 54.6676 15.1383 54.5674 14.5869C54.4717 14.0355 54.4238 13.4476 54.4238 12.8232ZM55.5996 12.4268C55.5996 13.2926 55.6634 14.0811 55.791 14.792C55.9232 15.5029 56.1396 16.0156 56.4404 16.3301C56.7458 16.64 57.1081 16.7949 57.5273 16.7949C57.9329 16.7949 58.2702 16.6559 58.5391 16.3779C58.8125 16.0999 59.0107 15.6237 59.1338 14.9492C59.2614 14.2747 59.3252 13.4408 59.3252 12.4473C59.3252 10.8887 59.1771 9.73568 58.8809 8.98828C58.5846 8.24089 58.0947 7.86719 57.4111 7.86719C56.8141 7.86719 56.363 8.15658 56.0576 8.73535C55.7523 9.31413 55.5996 10.5446 55.5996 12.4268ZM63.249 17.0547L63.1943 17V16.7061L63.249 16.6514C63.9235 16.6331 64.3223 16.6126 64.4453 16.5898C64.5729 16.5671 64.6663 16.5192 64.7256 16.4463C64.7848 16.3734 64.8281 16.1956 64.8555 15.9131C64.8874 15.6305 64.9033 15.3298 64.9033 15.0107V14.5049H63.4062C62.5358 14.5049 61.7998 14.5186 61.1982 14.5459L61.082 14.1768C61.875 12.6911 63.1989 10.54 65.0537 7.72363L66.0176 7.33398L66.1885 7.41602C66.1383 8.19076 66.1133 9.15007 66.1133 10.2939L66.0928 12.2217V13.6367C66.7217 13.6322 67.207 13.6185 67.5488 13.5957L67.6104 13.6641C67.6012 13.8372 67.5967 13.9626 67.5967 14.04C67.6012 14.1904 67.6081 14.3385 67.6172 14.4844L67.5488 14.5459C67.1068 14.5186 66.7376 14.5049 66.4414 14.5049H66.0928V14.9629C66.0928 15.4733 66.1064 15.8356 66.1338 16.0498C66.1611 16.264 66.2044 16.403 66.2637 16.4668C66.3229 16.526 66.4414 16.5716 66.6191 16.6035C66.8014 16.6309 67.1136 16.6468 67.5557 16.6514L67.6172 16.7061V17L67.5625 17.0547C66.7604 17.0182 66.0882 17 65.5459 17C64.6618 17 63.8962 17.0182 63.249 17.0547ZM61.9844 13.6367H64.9033L64.9648 8.77637C64.5273 9.40072 63.9759 10.2575 63.3105 11.3467C62.6452 12.4359 62.2031 13.1992 61.9844 13.6367Z" fill="#969870"/>
<line x1="85" y1="12" x2="121" y2="12" stroke="#969870"/>
</svg>
