<svg width="121" height="25" viewBox="0 0 121 25" fill="none" xmlns="http://www.w3.org/2000/svg">
<line y1="12" x2="36" y2="12" stroke="#969870"/>
<circle cx="60.5" cy="12.5" r="12" fill="#313221" stroke="#969870"/>
<path d="M54.4238 12.8232C54.4238 12.012 54.4648 11.2829 54.5469 10.6357C54.6289 9.98405 54.8089 9.40527 55.0869 8.89941C55.3695 8.389 55.7204 8.00846 56.1396 7.75781C56.5635 7.5026 57.0443 7.375 57.582 7.375C58.1927 7.375 58.7282 7.53223 59.1885 7.84668C59.6533 8.16113 59.986 8.64421 60.1865 9.2959C60.3916 9.94759 60.4941 10.834 60.4941 11.9551C60.4941 13.778 60.2139 15.1201 59.6533 15.9814C59.0973 16.8428 58.3249 17.2734 57.3359 17.2734C56.8392 17.2734 56.3994 17.1663 56.0166 16.9521C55.6383 16.738 55.3262 16.4281 55.0801 16.0225C54.8385 15.6169 54.6676 15.1383 54.5674 14.5869C54.4717 14.0355 54.4238 13.4476 54.4238 12.8232ZM55.5996 12.4268C55.5996 13.2926 55.6634 14.0811 55.791 14.792C55.9232 15.5029 56.1396 16.0156 56.4404 16.3301C56.7458 16.64 57.1081 16.7949 57.5273 16.7949C57.9329 16.7949 58.2702 16.6559 58.5391 16.3779C58.8125 16.0999 59.0107 15.6237 59.1338 14.9492C59.2614 14.2747 59.3252 13.4408 59.3252 12.4473C59.3252 10.8887 59.1771 9.73568 58.8809 8.98828C58.5846 8.24089 58.0947 7.86719 57.4111 7.86719C56.8141 7.86719 56.363 8.15658 56.0576 8.73535C55.7523 9.31413 55.5996 10.5446 55.5996 12.4268ZM62.0459 9.27539L61.9229 9.23438L61.8545 8.67383L61.9229 8.60547C62.3786 8.47331 62.9551 8.26139 63.6523 7.96973C64.3496 7.67806 64.8486 7.45475 65.1494 7.2998L65.3271 7.36816C65.2542 9.36426 65.2178 10.5628 65.2178 10.9639V13.5C65.2178 14.1243 65.2246 14.7122 65.2383 15.2637C65.252 15.8105 65.2725 16.1341 65.2998 16.2344C65.3271 16.3301 65.3727 16.4053 65.4365 16.46C65.5049 16.5146 65.5983 16.5511 65.7168 16.5693C65.8353 16.583 66.1885 16.6058 66.7764 16.6377L66.8242 16.6924V17L66.7764 17.0547C65.7783 17.0182 65.0742 17 64.6641 17C64.3542 17 63.5954 17.0182 62.3877 17.0547L62.3398 17V16.6924L62.3945 16.6377C63.0781 16.5876 63.4678 16.5511 63.5635 16.5283C63.6637 16.5055 63.7389 16.4668 63.7891 16.4121C63.8438 16.3529 63.887 16.2435 63.9189 16.084C63.9508 15.9245 63.9759 15.4528 63.9941 14.6689C64.0169 13.8851 64.0283 13.484 64.0283 13.4658V10.7725C64.0283 9.45085 64.0238 8.73307 64.0146 8.61914C64.0101 8.50521 63.9714 8.44824 63.8984 8.44824C63.8802 8.44824 63.8551 8.4528 63.8232 8.46191C63.7913 8.47103 63.6911 8.51204 63.5225 8.58496L62.8457 8.88574C62.5632 9.00879 62.2965 9.13867 62.0459 9.27539Z" fill="#969870"/>
<line x1="85" y1="12" x2="121" y2="12" stroke="#969870"/>
</svg>
