<svg width="121" height="25" viewBox="0 0 121 25" fill="none" xmlns="http://www.w3.org/2000/svg">
<line y1="12" x2="36" y2="12" stroke="#969870"/>
<circle cx="60.5" cy="12.5" r="12" fill="#313221" stroke="#969870"/>
<path d="M54.4238 12.8232C54.4238 12.012 54.4648 11.2829 54.5469 10.6357C54.6289 9.98405 54.8089 9.40527 55.0869 8.89941C55.3695 8.389 55.7204 8.00846 56.1396 7.75781C56.5635 7.5026 57.0443 7.375 57.582 7.375C58.1927 7.375 58.7282 7.53223 59.1885 7.84668C59.6533 8.16113 59.986 8.64421 60.1865 9.2959C60.3916 9.94759 60.4941 10.834 60.4941 11.9551C60.4941 13.778 60.2139 15.1201 59.6533 15.9814C59.0973 16.8428 58.3249 17.2734 57.3359 17.2734C56.8392 17.2734 56.3994 17.1663 56.0166 16.9521C55.6383 16.738 55.3262 16.4281 55.0801 16.0225C54.8385 15.6169 54.6676 15.1383 54.5674 14.5869C54.4717 14.0355 54.4238 13.4476 54.4238 12.8232ZM55.5996 12.4268C55.5996 13.2926 55.6634 14.0811 55.791 14.792C55.9232 15.5029 56.1396 16.0156 56.4404 16.3301C56.7458 16.64 57.1081 16.7949 57.5273 16.7949C57.9329 16.7949 58.2702 16.6559 58.5391 16.3779C58.8125 16.0999 59.0107 15.6237 59.1338 14.9492C59.2614 14.2747 59.3252 13.4408 59.3252 12.4473C59.3252 10.8887 59.1771 9.73568 58.8809 8.98828C58.5846 8.24089 58.0947 7.86719 57.4111 7.86719C56.8141 7.86719 56.363 8.15658 56.0576 8.73535C55.7523 9.31413 55.5996 10.5446 55.5996 12.4268ZM61.7109 16.8428C61.6289 16.305 61.4762 15.6579 61.2529 14.9014L61.2871 14.7988L61.54 14.7031L61.6357 14.751C61.7952 15.1702 61.9661 15.5166 62.1484 15.79C62.3307 16.0635 62.5928 16.2731 62.9346 16.4189C63.2764 16.5648 63.6455 16.6377 64.042 16.6377C64.5433 16.6377 64.9398 16.5329 65.2314 16.3232C65.5277 16.1136 65.7555 15.8288 65.915 15.4688C66.0745 15.1087 66.1543 14.7031 66.1543 14.252C66.1543 13.6458 65.9948 13.1696 65.6758 12.8232C65.3613 12.4769 64.9238 12.3037 64.3633 12.3037C64.1719 12.3037 64.001 12.3219 63.8506 12.3584C63.7002 12.3949 63.4678 12.4769 63.1533 12.6045L63.0781 12.5361L63.2285 11.791C63.5977 11.8138 63.8438 11.8252 63.9668 11.8252C64.5 11.8252 64.9215 11.6361 65.2314 11.2578C65.5459 10.8796 65.7031 10.4329 65.7031 9.91797C65.7031 9.4668 65.5391 9.08854 65.2109 8.7832C64.8874 8.47786 64.4863 8.3252 64.0078 8.3252C63.6934 8.3252 63.3949 8.389 63.1123 8.5166C62.8343 8.64421 62.6042 8.79915 62.4219 8.98145C62.3444 9.13639 62.2214 9.44173 62.0527 9.89746L61.9844 9.95898H61.6768L61.6221 9.89746L62.0322 8.31152C62.6019 7.66895 63.3743 7.34766 64.3496 7.34766C65.0924 7.34766 65.6917 7.5459 66.1475 7.94238C66.6077 8.33431 66.8379 8.82878 66.8379 9.42578C66.8379 9.88151 66.7035 10.3008 66.4346 10.6836C66.1657 11.0618 65.792 11.4196 65.3135 11.7568C66.1019 11.8525 66.6556 12.0895 66.9746 12.4678C67.2982 12.8415 67.46 13.2949 67.46 13.8281C67.46 14.7031 67.0635 15.4915 66.2705 16.1934C65.4775 16.8906 64.5615 17.2393 63.5225 17.2393C63.2126 17.2393 62.9232 17.2119 62.6543 17.1572C62.3854 17.1071 62.071 17.0023 61.7109 16.8428Z" fill="#969870"/>
<line x1="85" y1="12" x2="121" y2="12" stroke="#969870"/>
</svg>
